<?xml version="1.0" encoding="UTF-8" standalone="no"?>
<!DOCTYPE svg PUBLIC "-//W3C//DTD SVG 1.1//EN" "http://www.w3.org/Graphics/SVG/1.1/DTD/svg11.dtd">
<svg width="100%" height="100%" viewBox="0 0 11112 11112" version="1.1" xmlns="http://www.w3.org/2000/svg" xmlns:xlink="http://www.w3.org/1999/xlink" xml:space="preserve" xmlns:serif="http://www.serif.com/" style="fill-rule:evenodd;clip-rule:evenodd;stroke-linecap:round;stroke-linejoin:round;stroke-miterlimit:1.5;">
    <g transform="matrix(5.55556,0,0,5.55556,0,0)">
        <rect id="Artboard1" x="0" y="0" width="2000" height="2000" style="fill:none;"/>
        <g id="Artboard11" serif:id="Artboard1">
            <g transform="matrix(1.9296,0,0,2.12232,-805.922,-382.619)">
                <g>
                    <rect x="613" y="445" width="62" height="414" style="fill:white;stroke:white;stroke-width:0.49px;"/>
                    <g transform="matrix(1,0,0,1,18.6568,20.5)">
                        <rect x="515" y="525" width="58" height="234" style="fill:white;"/>
                    </g>
                    <g transform="matrix(1,0,0,1,31.6054,31)">
                        <rect x="447" y="611" width="44" height="41" style="fill:white;"/>
                    </g>
                </g>
                <g transform="matrix(-1,3.20924e-16,-3.20924e-16,-1,1871.81,1302.93)">
                    <rect x="613" y="445" width="62" height="414" style="fill:white;stroke:white;stroke-width:0.49px;"/>
                    <g transform="matrix(1,0,0,1,17.6203,-1.57101)">
                        <rect x="515" y="525" width="58" height="234" style="fill:white;"/>
                    </g>
                    <g transform="matrix(1,0,0,1,29.5324,8.92899)">
                        <rect x="447" y="611" width="44" height="41" style="fill:white;"/>
                    </g>
                </g>
                <g transform="matrix(9.95455,0,0,1,-3735.68,31)">
                    <rect x="447" y="611" width="44" height="41" style="fill:white;"/>
                </g>
            </g>
        </g>
    </g>
</svg>
